<?xml version="1.0" standalone="no"?>
<!DOCTYPE svg PUBLIC "-//W3C//DTD SVG 20010904//EN"
 "http://www.w3.org/TR/2001/REC-SVG-20010904/DTD/svg10.dtd">
<svg version="1.0" xmlns="http://www.w3.org/2000/svg"
 width="500.000000pt" height="500.000000pt" viewBox="0 0 500.000000 500.000000"
 preserveAspectRatio="xMidYMid meet">

<g transform="translate(0.000000,500.000000) scale(0.100000,-0.100000)"
fill="#000000" stroke="none">
<path d="M1933 4396 l-33 -9 0 -67 c0 -41 -6 -79 -15 -96 -19 -37 -19 -54 0
-54 20 0 20 -78 0 -116 -22 -43 -19 -54 15 -54 50 0 70 30 70 105 l0 65 48 0
c26 0 53 5 60 12 9 9 12 -10 12 -85 0 -102 1 -103 48 -91 22 6 22 9 22 165 0
88 4 159 8 159 5 0 13 16 19 35 l11 35 -32 0 c-47 0 -67 -27 -73 -99 l-6 -61
-43 0 c-23 0 -49 -3 -58 -6 -13 -5 -16 8 -18 83 l-3 89 -32 -10z"/>
<path d="M2307 4358 c-45 -33 -57 -48 -57 -69 0 -15 -7 -40 -15 -55 -19 -37
-19 -64 0 -64 11 0 15 -11 15 -39 0 -44 33 -99 70 -118 45 -23 97 -16 145 20
l44 32 1 134 0 133 -34 34 c-49 49 -94 47 -169 -8z m121 -40 c8 -8 12 -52 12
-130 l0 -118 -42 0 c-70 0 -78 15 -78 147 l0 113 48 0 c26 0 53 -5 60 -12z"/>
<path d="M2561 4369 c-14 -41 -15 -39 16 -39 21 0 24 -3 15 -12 -7 -7 -12 -24
-12 -39 0 -15 -7 -40 -15 -55 -19 -37 -19 -54 0 -54 20 0 20 -78 0 -116 -22
-43 -19 -54 15 -54 50 0 70 30 70 105 l0 65 39 0 c89 0 131 37 131 115 0 90
-36 115 -164 115 l-84 0 -11 -31z m187 -81 c3 -40 9 -36 -73 -53 -24 -5 -25
-3 -25 45 l0 51 48 -3 c46 -3 47 -3 50 -40z"/>
<path d="M2960 4230 l0 -40 -40 0 c-38 0 -40 -2 -40 -30 0 -28 2 -30 40 -30
39 0 40 -1 40 -35 0 -32 2 -35 30 -35 28 0 30 3 30 35 0 33 2 35 35 35 32 0
35 2 35 30 0 28 -3 30 -35 30 -34 0 -35 1 -35 40 0 38 -2 40 -30 40 -28 0 -30
-2 -30 -40z"/>
<path d="M2409 3495 c-46 -53 -85 -101 -87 -108 -3 -12 165 -207 178 -207 3 0
31 28 61 61 30 34 69 78 86 98 18 20 33 41 32 46 0 6 -27 39 -60 75 -33 36
-72 80 -86 98 -14 17 -29 32 -33 32 -4 0 -45 -43 -91 -95z"/>
<path d="M2124 3163 c-15 -21 -31 -40 -34 -43 -19 -17 -70 -90 -70 -101 0 -13
170 -189 182 -189 5 0 103 117 136 162 12 17 5 28 -79 113 -51 52 -96 95 -100
95 -3 0 -19 -17 -35 -37z"/>
<path d="M2741 3105 c-68 -69 -91 -98 -84 -107 69 -88 136 -168 141 -168 4 0
50 42 101 94 l94 94 -45 59 c-57 73 -101 123 -108 123 -4 0 -48 -43 -99 -95z"/>
<path d="M2417 2759 l-68 -79 30 -38 c16 -20 50 -57 76 -82 l47 -45 74 80 c40
44 73 83 71 87 -6 17 -140 158 -150 158 -7 -1 -43 -37 -80 -81z"/>
<path d="M1834 2777 c-11 -14 -26 -35 -34 -47 -8 -12 -23 -33 -32 -45 -24 -31
-23 -50 5 -68 12 -9 51 -42 86 -75 57 -54 91 -68 91 -40 0 5 6 15 13 22 6 8
19 24 27 36 8 12 20 28 27 35 28 29 12 56 -74 124 -10 8 -34 30 -54 48 l-36
34 -19 -24z"/>
<path d="M3099 2757 c-20 -17 -59 -52 -88 -76 -29 -24 -50 -49 -47 -56 2 -6
26 -41 52 -78 37 -51 51 -64 63 -57 9 5 48 38 86 74 39 36 73 66 78 66 4 0 7
7 7 15 0 19 -91 144 -105 145 -5 0 -26 -15 -46 -33z"/>
<path d="M2180 2463 c-40 -46 -90 -117 -90 -126 0 -5 31 -41 70 -79 57 -57 72
-67 82 -56 31 32 98 126 98 137 0 11 -129 141 -140 141 -3 0 -12 -8 -20 -17z"/>
<path d="M2723 2414 c-35 -34 -63 -68 -63 -75 0 -13 75 -116 99 -137 13 -10
26 -2 83 55 37 37 68 74 68 81 0 17 -102 142 -115 141 -5 -1 -38 -30 -72 -65z"/>
<path d="M1552 2349 c-42 -70 -49 -89 -34 -89 5 0 22 -12 39 -27 18 -16 41
-35 53 -43 12 -8 36 -27 53 -42 18 -15 36 -23 40 -19 5 5 26 37 48 72 l38 64
-28 25 c-88 78 -151 129 -161 130 -3 0 -24 -32 -48 -71z"/>
<path d="M3360 2397 c-14 -13 -54 -45 -90 -73 l-65 -50 15 -29 c8 -17 17 -32
21 -35 3 -3 15 -22 28 -42 12 -21 25 -38 28 -38 4 0 22 12 42 27 47 36 50 38
91 73 19 16 38 30 43 30 16 0 5 34 -30 95 -21 36 -43 65 -48 65 -6 0 -21 -10
-35 -23z"/>
<path d="M2430 2109 l-62 -70 20 -22 c11 -12 41 -44 66 -72 l46 -50 46 50 c25
28 54 61 65 74 l18 23 -62 69 c-34 38 -65 69 -68 69 -3 0 -34 -32 -69 -71z"/>
<path d="M1895 2078 c-22 -33 -41 -64 -43 -69 -3 -7 16 -26 116 -116 l36 -32
20 32 c11 18 23 34 26 37 4 3 15 20 26 39 l19 33 -75 69 c-41 38 -77 68 -80
68 -3 0 -23 -27 -45 -61z"/>
<path d="M2982 2072 c-39 -37 -72 -72 -72 -78 0 -5 20 -38 44 -72 l44 -62 53
49 c30 27 65 58 78 69 l25 19 -29 49 c-16 27 -35 55 -42 62 -7 7 -13 18 -13
23 0 18 -16 7 -88 -59z"/>
<path d="M2204 1847 c-30 -35 -74 -95 -74 -101 0 -3 32 -37 72 -75 63 -62 74
-69 82 -53 5 9 14 22 20 28 6 6 18 22 26 34 8 12 21 29 28 36 11 11 1 26 -56
84 -39 38 -72 70 -74 70 -2 0 -13 -10 -24 -23z"/>
<path d="M2700 1804 l-71 -71 46 -61 c25 -34 45 -66 45 -71 0 -5 34 27 76 70
l77 78 -29 38 c-15 21 -38 49 -51 62 l-22 25 -71 -70z"/>
<path d="M2465 1553 c-14 -16 -35 -43 -46 -61 -24 -37 -21 -44 40 -112 17 -19
31 -38 31 -42 0 -13 20 -9 20 3 0 6 20 34 45 61 25 28 45 54 45 58 0 12 -91
120 -101 120 -4 0 -20 -12 -34 -27z"/>
</g>
</svg>
